<?xml version="1.0" encoding="UTF-8"?>
<svg id="Capa_1" data-name="Capa 1" xmlns="http://www.w3.org/2000/svg" viewBox="0 0 384 383.64">
  <defs>
    <style>
      .cls-1 {
        fill: #495057;
      }
    </style>
  </defs>
  <path class="cls-1" d="M204,383.64h-24c-.96-.21-1.91-.54-2.88-.62-38.25-3.04-72.68-16.12-102.82-39.78C35.5,312.79,11.55,273.23,2.87,224.64c-1.22-6.85-1.93-13.78-2.87-20.68,0-7.99,0-15.97,0-23.96,.46-3.57,.93-7.13,1.39-10.7C8.38,114.94,33.74,70.91,77.63,38.24,139.62-7.92,221.11-12.71,287.9,26.15c51.33,29.86,82.35,74.71,93.21,133.17,1.27,6.84,1.94,13.79,2.89,20.69v23.96c-.56,4.56-1.05,9.13-1.68,13.68-4.97,35.51-18.53,67.39-41.33,95.09-30.16,36.65-68.7,59.44-115.54,67.93-7.09,1.29-14.29,1.99-21.44,2.97ZM160.7,102.82c.67,8.4,.96,14.39,1.66,20.32,3.56,30.16,10.87,59.51,19.37,88.6,.85,2.91,2.34,5.85,4.25,8.18,3.33,4.06,8.69,4.09,12.04,.06,1.93-2.32,3.42-5.26,4.26-8.17,8.86-30.79,16.89-61.78,20.11-93.76,1.07-10.65,2.01-21.38-1.72-31.84-4.67-13.11-15.79-21.45-28.63-21.37-12.81,.08-24.32,8.49-28.38,21.63-1.85,5.98-2.28,12.4-2.96,16.35Zm31.83,158.57c-14.77-.25-25.6,10.67-25.84,26.06-.24,15.14,10.23,26.47,24.74,26.79,14.9,.32,25.53-10.32,25.89-25.92,.36-15.58-9.85-26.67-24.79-26.93Z"/>
</svg>